<svg id="Capa_1" enable-background="new 0 0 512.002 512.002" height="512" viewBox="0 0 512.002 512.002" width="512" xmlns="http://www.w3.org/2000/svg"><g><g><path d="m317.45 274.635 2.996-15.967 56.333-126-67-103.333-5.024-13.346c-15.033-5.492-31.266-8.489-48.2-8.489-14.615 0-28.709 2.234-41.959 6.375l-6.483 9.459-67.333 159.334 10.667 28.667 98.667 70.667 6.328 6.48c.038 0 .076.001.114.001 21.816-.001 42.472-4.974 60.894-13.848z" fill="#60b9fe"/><path d="m260.502 7.561c-1.312-.036-2.627-.061-3.948-.061-14.615 0-28.709 2.234-41.959 6.375l-6.483 9.459-19.251 45.556c16.689-27.318 41.762-48.949 71.641-61.329z" fill="#1ca8ff"/><path d="m166.671 147.99c0-13.057 1.649-25.729 4.746-37.82l-30.637 72.497 10.667 28.667 55.679 39.878c-25.104-27.102-40.455-63.366-40.455-103.222z" fill="#1ca8ff"/><path d="m256.441 288.481c10.772-24.649-19.824-36.566-28.169-43.66-9.39-7.981-.469-30.516-27.23-25.821s-38.028-10.798-47.887-25.352 9.859-19.718 24.882-34.741 20.188-20.657 10.329-49.765 14.554-40.845 28.638-61.032c8.992-12.888 3.058-26.254-2.408-34.235-57.095 17.844-98.532 71.14-98.532 134.116 0 77.553 62.838 140.428 140.377 140.49z" fill="#00f4a8"/><path d="m184.362 219.191c-15.365-2.841-23.698-14.459-31.207-25.543-7.713-11.386 2.677-17.026 14.76-26.136-.82-6.392-1.244-12.907-1.244-19.522 0-46.982 21.327-88.98 54.823-116.853-.69-6.744-3.864-12.833-6.898-17.263-57.095 17.844-98.532 71.14-98.532 134.116 0 77.553 62.839 140.428 140.377 140.49.227-.519.428-1.03.619-1.537-31.151-13.821-56.784-37.807-72.698-67.752z" fill="#00e49d"/><path d="m304.756 15.988c-3.872 10.593-7.26 28.244 8.961 35.878 23.943 11.267 10.798 26.291-17.84 26.76s-52.582 34.272-26.291 46.478 8.451 30.047 29.108 31.455 28.638-39.436 45.07-32.863 22.065 46.009-12.206 62.91-50.234 2.347-54.929 22.065c-3.816 16.026 35.162 40.114 40.822 65.963 47.095-22.687 79.596-70.87 79.596-126.643-.001-60.657-38.442-112.335-92.291-132.003z" fill="#00f4a8"/><g><path d="m449.686 220.535c-10.758.37-19.053 9.43-18.525 20.238l3.023 61.977c.063 1.299-.119 2.577-.482 3.797h5.39l8.417-6.915 19.738-64.777v-4.927c-3.892-5.339-10.788-9.626-17.561-9.393z" fill="#ffcebe"/><path d="m451.655 240.773c-.349-7.155 3.182-13.528 8.721-17.136-3.262-2.003-6.993-3.229-10.69-3.102-10.758.37-19.052 9.43-18.525 20.238l3.023 61.977c.063 1.299-.119 2.577-.482 3.797h5.39l8.417-6.915 6.049-19.851z" fill="#ffb1a0"/><path d="m486.247 226.294c-10.396-3.591-21.656 2.179-24.904 12.61l-18.23 58.535c-.813 2.609-2.537 4.839-4.859 6.281l-32.642 20.277c-.057.035-.11-.038-.061-.083 7.297-6.662 9.223-17.716 4.013-26.529-5.831-9.865-18.475-13.288-28.565-7.731l-76.357 42.049c-8.636 4.756-15.101 12.668-18.027 22.066l-7.139 22.923c-5.708 18.328-8.894 37.335-9.496 56.501l1.864 3.069h86.369l.962-3.069c1.49-5.699 3.789-11.167 6.923-16.178 7.832-12.526 17.947-23.589 29.921-32.558 6.985-5.233 55.063-41.247 62.149-46.555 10.773-7.858 18.731-18.97 22.689-31.679l17.305-55.566c3.121-10.024-2.013-20.944-11.915-24.363z" fill="#ffdecf"/><g><path d="m316.822 353.892 7.139-22.923c1.701-5.462 4.603-10.415 8.426-14.545l-27.744 15.278c-8.636 4.756-15.101 12.668-18.027 22.066l-7.139 22.923c-5.708 18.328-8.894 37.335-9.496 56.501l1.864 3.069h33.515l-1.864-3.069c.601-19.167 7.617-60.973 13.326-79.3z" fill="#ffcebe"/></g><path d="m405.551 323.913c5.939-5.422 8.318-13.753 6.19-21.418l-43.545 28.243c-3.391 2.2-4.358 6.732-2.158 10.124 1.402 2.161 3.751 3.338 6.148 3.338 1.365 0 2.746-.382 3.976-1.179l29.382-19.057c-.003-.018-.01-.035.007-.051z" fill="#ffcebe"/><path d="m63.424 220.535c10.758.37 19.053 9.43 18.525 20.238l-3.023 61.977c-.063 1.299.119 2.577.482 3.797h-5.39l-8.417-6.915-19.738-64.777v-4.927c3.892-5.339 10.788-9.626 17.561-9.393z" fill="#ffcebe"/><path d="m74.018 306.547h5.39c-.363-1.22-.545-2.498-.482-3.797l1.292-26.49-15.049-48.319c-.873-2.804-2.339-5.257-4.197-7.296-5.942.71-11.686 4.588-15.109 9.283v4.927l19.738 64.777z" fill="#ffb1a0"/><path d="m26.863 226.294c10.396-3.591 21.656 2.179 24.904 12.61l18.23 58.535c.813 2.609 2.537 4.839 4.859 6.281l32.642 20.277c.057.035.11-.038.061-.083-7.297-6.662-9.223-17.716-4.013-26.529 5.831-9.865 18.475-13.288 28.565-7.731l76.357 42.049c8.636 4.756 15.101 12.668 18.027 22.066l7.139 22.923c5.708 18.328 8.894 37.335 9.496 56.501l-1.864 3.069h-86.369l-.962-3.069c-1.49-5.699-3.789-11.167-6.923-16.178-7.832-12.526-17.947-23.589-29.92-32.558-6.985-5.233-55.063-41.247-62.149-46.555-10.773-7.858-18.731-18.97-22.689-31.679l-17.306-55.566c-3.121-10.024 2.012-20.944 11.915-24.363z" fill="#ffdecf"/><g><path d="m167.624 404.543c-7.832-12.526-21.82-23.486-33.793-32.455-6.985-5.233-55.063-41.247-62.149-46.555-10.773-7.858-18.731-18.97-22.689-31.679l-17.306-55.566c-1.37-4.399-1.148-8.971.368-13.006-1.728.103-3.471.418-5.192 1.012-9.903 3.42-15.036 14.339-11.915 24.361l17.306 55.566c3.958 12.709 11.916 23.821 22.689 31.679 7.086 5.308 55.163 41.322 62.149 46.555 11.974 8.969 22.089 20.032 29.921 32.558 3.133 5.011 5.433 10.479 6.923 16.178l.962 3.069h26.612c-1.797-6.246-10.823-26.818-13.886-31.717z" fill="#ffcebe"/></g><path d="m107.559 323.913c-5.939-5.422-8.318-13.753-6.19-21.418l43.545 28.243c3.391 2.2 4.358 6.732 2.158 10.124-1.402 2.161-3.751 3.338-6.148 3.338-1.365 0-2.746-.382-3.976-1.179l-29.382-19.057c.003-.018.01-.035-.007-.051z" fill="#ffcebe"/><path d="m245.82 433.191h-55.361c-6.441 0-11.711 5.27-11.711 11.711v22.284l7.094 2.907h66.118l5.571-2.907v-22.284c0-6.441-5.27-11.711-11.711-11.711z" fill="#dbedff"/><path d="m180.699 444.902c0-6.441 5.27-11.711 11.711-11.711h-39.769c-6.441 0-11.711 5.27-11.711 11.711v22.284l7.094 2.907h39.769l-7.094-2.907z" fill="#b5dcff"/><path d="m178.748 467.186v25.605c0 6.441 5.27 11.711 11.711 11.711h55.361c6.441 0 11.711-5.27 11.711-11.711v-25.605z" fill="#60b9fe"/><path d="m180.699 492.791v-25.605h-39.769v25.605c0 6.441 5.27 11.711 11.711 11.711h39.769c-6.441 0-11.711-5.27-11.711-11.711z" fill="#1ca8ff"/><path d="m360.468 433.191h-54.385c-6.441 0-11.711 5.27-11.711 11.711v22.284l5.57 2.907h65.143l7.094-2.907v-22.284c0-6.441-5.27-11.711-11.711-11.711z" fill="#dbedff"/><path d="m296.324 444.902c0-6.441 5.27-11.711 11.711-11.711h-39.769c-6.441 0-11.711 5.27-11.711 11.711v22.284l5.57 2.907h39.769l-5.57-2.907z" fill="#b5dcff"/><path d="m294.372 467.186v25.605c0 6.441 5.27 11.711 11.711 11.711h54.385c6.441 0 11.711-5.27 11.711-11.711v-25.605z" fill="#60b9fe"/><path d="m296.324 492.791v-25.605h-39.769v25.605c0 6.441 5.27 11.711 11.711 11.711h39.769c-6.441 0-11.711-5.27-11.711-11.711z" fill="#1ca8ff"/></g></g><g><path d="m255.824 295.98c.02 0 .039.001.058.001h.004c.039 0 .077.001.115.001 82.259 0 147.991-66.814 147.991-147.991 0-81.394-65.862-147.991-147.991-147.991-80.859 0-147.991 65.456-147.991 147.991 0 81.543 66.293 147.893 147.814 147.989zm53.257-269.915c49.273 21.534 79.911 70.11 79.911 121.926 0 47.024-25.493 92.014-67.861 115.914-5.036-11.107-14.078-21.311-22.26-30.543-6.975-7.87-16.526-18.647-15.501-22.954 1.268-5.322 1.726-5.569 12.248-6.609 9.224-.912 21.855-2.16 38.702-10.467 19.137-9.438 30.107-26.771 29.347-46.369-.788-20.272-13.495-31.561-24.178-31.561-10.068 0-17.24 9.963-23.199 18.243-5.609 7.795-11.375 15.858-17.641 15.431-4.379-.299-4.379-.299-5.484-5.183-1.498-6.625-4.007-17.715-20.975-25.593-7.404-3.438-7.39-7.942-6.733-11.032 2.076-9.783 15.343-20.905 29.989-21.145 20.661-.339 34.97-7.403 37.341-18.435 1.085-5.046.393-14.694-16.431-22.611-6.733-3.166-9.164-9.548-7.275-19.012zm-83.85-7.465c9.88-2.349 20.181-3.6 30.77-3.6 13.533 0 26.597 2.038 38.91 5.812-4.244 17.667 1.045 31.245 15.059 37.84 5.897 2.775 7.813 5.183 8.111 5.977-.896 1.915-8.381 6.26-22.881 6.498-20.347.333-40.687 15.458-44.416 33.028-2.51 11.825 3.131 22.199 15.09 27.751 10.28 4.773 11.384 9.65 12.661 15.297 1.421 6.284 3.569 15.78 19.094 16.838 14.029.965 22.784-10.446 30.836-21.634 4.117-5.719 9.233-12.834 11.96-11.749 3.835 1.534 7.901 7.827 8.253 16.887.196 5.06-.736 22.345-20.992 32.333-14.4 7.102-25.014 8.15-33.542 8.993-10.605 1.048-21.572 2.131-25.365 18.062-2.832 11.894 7.224 23.24 18.867 36.377 7.579 8.552 15.98 18.046 20.009 27.229-13.088 5.537-27.241 9.031-42.057 10.093 1.544-19.299-17.226-31.234-27.013-37.45-7.14-4.535-7.033-3.9-8.936-11.708-2.059-8.447-5.888-24.174-30.457-19.864-21.088 3.701-29.683-6.376-40.382-22.171-2.309-3.408-2.856-4.217 9.271-13.126 4.595-3.375 9.803-7.202 14.707-12.105 16.365-16.367 23.137-24.973 12.128-57.474-8.202-24.212 12.944-33.205 27.685-54.334 7.017-10.056 7.856-21.803 2.63-33.8zm-102.221 129.391c0-56.835 36.061-106.293 87.719-125.052 3.934 7.818 3.796 14.824-.43 20.879-13.292 19.055-41.048 33.904-29.59 67.73 8.482 25.043 5.553 27.974-8.527 42.055-9.577 9.575-21.395 14.874-26.834 23.322-2.919 4.535-5.107 11.848 1.045 20.929 13.775 20.335 27.8 33.372 55.392 28.532 5.172-.907 8.82-.634 10.284.768 1.42 1.361 2.228 4.672 3.008 7.874 3.166 12.988 5.98 14.792 15.468 20.818 14.086 8.946 21.479 15.706 19.899 25.012-70.881-2.922-127.434-61.519-127.434-132.867z"/><path d="m24.539 308.451c4.407 14.15 13.438 26.76 25.354 35.452l62.148 46.555c11.192 8.385 20.633 18.657 28.059 30.533 1.327 2.122 2.495 4.362 3.498 6.705-6.341 3.142-10.722 9.664-10.722 17.207v47.889c0 10.593 8.618 19.211 19.211 19.211h28.602c4.143 0 7.5-3.358 7.5-7.5s-3.357-7.5-7.5-7.5h-28.602c-2.282 0-4.211-1.928-4.211-4.211v-18.105h100.624v18.105c0 2.283-1.929 4.211-4.211 4.211h-28.601c-4.143 0-7.5 3.358-7.5 7.5s3.357 7.5 7.5 7.5h28.601c4.41 0 8.465-1.509 11.711-4.017 3.246 2.508 7.302 4.017 11.712 4.017h92.202c10.593 0 19.211-8.618 19.211-19.211 0-9.379 0-38.382 0-47.889 0-7.543-4.38-14.066-10.722-17.207 1.003-2.343 2.172-4.584 3.499-6.706 7.425-11.874 16.864-22.146 28.06-30.532l7.705-5.772c3.314-2.483 3.989-7.184 1.506-10.499-2.484-3.315-7.184-3.99-10.5-1.506l-7.705 5.773c-12.681 9.499-23.374 21.134-31.784 34.583-2.465 3.942-4.506 8.181-6.097 12.655h-75.776c1.1-15.884 4.041-31.583 8.771-46.771l7.14-22.923c2.363-7.589 7.507-13.885 14.484-17.726l76.357-42.05c6.577-3.622 14.698-1.436 18.49 4.979 2.942 4.977 2.987 11.825-3.181 17.693l-26.95 17.48c-3.476 2.254-4.465 6.898-2.211 10.374 2.252 3.473 6.895 4.467 10.373 2.211 40.749-26.43 28.251-18.48 59.009-37.586 2.282-1.417 7.806-4.258 10.126-11.703l18.229-58.535c1.959-6.287 8.797-9.994 15.295-7.751 5.918 2.043 9.148 8.791 7.201 15.042l-17.304 55.565c-3.457 11.097-10.542 20.988-20.026 27.907l-26.368 19.753c-3.315 2.483-3.99 7.184-1.507 10.499s7.184 3.99 10.5 1.506l26.292-19.696c11.99-8.747 21.021-21.357 25.431-35.508l17.304-55.565c4.334-13.909-3.125-29.019-16.626-33.68-6.687-2.31-13.828-1.916-20.204 1.08-5.474-4.737-12.415-7.469-19.062-7.246-14.945.513-26.491 13.091-25.759 28.099l2.974 60.964-6.689 4.155c-.29-4.365-1.582-8.711-3.935-12.69-7.941-13.438-24.918-18.042-38.639-10.484l-76.356 42.049c-10.389 5.72-18.049 15.098-21.571 26.405l-7.14 22.923c-5.26 16.887-8.453 34.363-9.526 52.037-2.288.682-4.389 1.785-6.233 3.21-1.844-1.425-3.945-2.528-6.232-3.21-1.074-17.672-4.267-35.147-9.526-52.038l-7.14-22.922c-3.521-11.307-11.182-20.685-21.57-26.406l-76.357-42.049c-13.724-7.56-30.697-2.954-38.639 10.483-2.353 3.979-3.645 8.326-3.935 12.69l-6.689-4.155 2.974-60.964c.732-15.002-10.806-27.586-25.76-28.1-6.583-.235-13.56 2.505-19.055 7.249-6.379-2.999-13.522-3.393-20.21-1.083-13.5 4.662-20.959 19.771-16.628 33.68zm424.85-80.421c.088-.003.176-.004.264-.004 2.167 0 4.63.895 6.841 2.377-1.199 1.928-2.213 4.172-2.866 6.271l-9.23 29.639-4.354 13.979-1.945-39.885c-.326-6.667 4.742-12.152 11.29-12.377zm-185.888 216.872c0-2.283 1.929-4.211 4.212-4.211h92.202c2.282 0 4.211 1.928 4.211 4.211v14.784h-100.625zm0 29.784h100.625v18.105c0 2.283-1.929 4.211-4.211 4.211h-92.202c-2.283 0-4.212-1.928-4.212-4.211zm-19.211-33.995c2.282 0 4.211 1.928 4.211 4.211v14.784h-100.624v-14.784c0-2.283 1.929-4.211 4.211-4.211zm-181.678-212.661c6.544.224 11.617 5.705 11.292 12.377l-1.945 39.884-13.584-43.618c-.645-2.072-1.648-4.313-2.866-6.271 2.301-1.542 4.896-2.442 7.103-2.372zm-33.854 5.353c6.545-2.26 13.355 1.517 15.295 7.751l18.229 58.535c2.277 7.304 7.53 10.09 10.126 11.703l25.047 15.559 33.962 22.027c3.474 2.254 8.12 1.264 10.373-2.211 2.254-3.475 1.265-8.12-2.211-10.374l-26.95-17.48c-.09-.086-.176-.175-.271-.258-5.073-4.373-6.296-11.706-2.909-17.436 3.791-6.414 11.915-8.601 18.49-4.978l76.357 42.049c6.978 3.842 12.121 10.138 14.484 17.727l7.14 22.922c4.73 15.19 7.672 30.889 8.771 46.771h-75.776c-1.591-4.475-3.632-8.713-6.097-12.654-8.41-13.45-19.104-25.086-31.783-34.584l-62.226-46.612c-9.408-6.863-16.493-16.754-19.948-27.85l-17.306-55.566c-1.947-6.25 1.285-12.997 7.203-15.041z"/></g></g></svg>